<?xml version="1.0" encoding="UTF-8"?>
<svg width="1080" height="1080" viewBox="0 0 1080 1080" xmlns="http://www.w3.org/2000/svg">
  <defs>
    <linearGradient id="brandGradient" x1="0%" y1="0%" x2="100%" y2="0%">
      <stop offset="0%" style="stop-color:#FF5200;stop-opacity:1" />
      <stop offset="100%" style="stop-color:#E4002B;stop-opacity:1" />
    </linearGradient>
    <linearGradient id="diagonalGradient" x1="0%" y1="0%" x2="100%" y2="100%">
      <stop offset="0%" style="stop-color:#FF5200;stop-opacity:1" />
      <stop offset="100%" style="stop-color:#E4002B;stop-opacity:1" />
    </linearGradient>
    <linearGradient id="bgGradient" x1="0%" y1="0%" x2="100%" y2="100%">
      <stop offset="0%" style="stop-color:#0F172A;stop-opacity:1" />
      <stop offset="40%" style="stop-color:#1E293B;stop-opacity:1" />
      <stop offset="100%" style="stop-color:#0F172A;stop-opacity:1" />
    </linearGradient>
    <radialGradient id="glowGradient" cx="50%" cy="35%" r="50%">
      <stop offset="0%" style="stop-color:#FF5200;stop-opacity:0.25" />
      <stop offset="100%" style="stop-color:#E4002B;stop-opacity:0" />
    </radialGradient>
    <filter id="glow" x="-50%" y="-50%" width="200%" height="200%">
      <feGaussianBlur stdDeviation="4" result="coloredBlur"/>
      <feMerge>
        <feMergeNode in="coloredBlur"/>
        <feMergeNode in="SourceGraphic"/>
      </feMerge>
    </filter>
    <filter id="textShadow" x="-20%" y="-20%" width="140%" height="140%">
      <feDropShadow dx="0" dy="4" stdDeviation="8" flood-color="#000000" flood-opacity="0.5"/>
    </filter>
    <pattern id="gridPattern" width="50" height="50" patternUnits="userSpaceOnUse">
      <path d="M 50 0 L 0 0 0 50" fill="none" stroke="#334155" stroke-width="0.5" opacity="0.3"/>
    </pattern>
  </defs>
  
  <!-- Background -->
  <rect width="1080" height="1080" fill="url(#bgGradient)"/>
  <rect width="1080" height="1080" fill="url(#gridPattern)" opacity="0.2"/>
  <ellipse cx="540" cy="380" rx="500" ry="350" fill="url(#glowGradient)"/>
  
  <!-- Top Accent -->
  <rect x="0" y="0" width="1080" height="6" fill="url(#brandGradient)"/>
  
  <!-- LOGO - Top Center -->
  <g transform="translate(540, 70)">
    <g transform="translate(-120, 0)">
      <circle cx="0" cy="0" r="22" fill="none" stroke="url(#brandGradient)" stroke-width="1.5" opacity="0.3"/>
      <circle cx="0" cy="-22" r="5" fill="url(#brandGradient)" filter="url(#glow)" opacity="0.9"/>
      <circle cx="22" cy="0" r="5" fill="url(#brandGradient)" filter="url(#glow)" opacity="0.9"/>
      <circle cx="0" cy="22" r="5" fill="url(#brandGradient)" filter="url(#glow)" opacity="0.9"/>
      <circle cx="-22" cy="0" r="5" fill="url(#brandGradient)" filter="url(#glow)" opacity="0.9"/>
      <circle cx="0" cy="0" r="7" fill="url(#brandGradient)" filter="url(#glow)"/>
    </g>
    <text x="30" y="12" font-family="'Segoe UI', Arial, sans-serif" font-size="42" font-weight="900" text-anchor="middle">
      <tspan fill="url(#brandGradient)">Loka</tspan><tspan fill="#F8FAFC">zen</tspan>
    </text>
  </g>
  
  <!-- Category Badge -->
  <g transform="translate(540, 160)">
    <rect x="-195" y="-24" width="390" height="44" rx="22" fill="url(#diagonalGradient)" opacity="0.12" stroke="url(#brandGradient)" stroke-width="1.5"/>
    <text x="0" y="6" font-family="'Segoe UI', Arial, sans-serif" font-size="18" font-weight="600" fill="#FF5200" text-anchor="middle">
      Cloud Kitchens  |  Delivery-Led Brands
    </text>
  </g>
  
  <!-- Property Owners -->
  <text x="540" y="240" font-family="'Segoe UI', Arial, sans-serif" font-size="24" font-weight="700" fill="#94A3B8" text-anchor="middle" letter-spacing="4">
    PROPERTY OWNERS
  </text>
  
  <!-- Main Headline -->
  <text x="540" y="350" font-family="'Segoe UI', Arial, sans-serif" font-size="52" font-weight="700" fill="#FFFFFF" text-anchor="middle" filter="url(#textShadow)">
    Not customer-facing.
  </text>
  <text x="540" y="430" font-family="'Segoe UI', Arial, sans-serif" font-size="60" font-weight="800" fill="url(#brandGradient)" text-anchor="middle" filter="url(#textShadow)">
    Still high demand.
  </text>
  
  <!-- Divider -->
  <line x1="340" y1="490" x2="740" y2="490" stroke="url(#brandGradient)" stroke-width="2" opacity="0.4"/>
  
  <!-- Sub Message -->
  <text x="540" y="560" font-family="'Segoe UI', Arial, sans-serif" font-size="28" font-weight="500" fill="#E2E8F0" text-anchor="middle">
    Matched with delivery-first
  </text>
  <text x="540" y="605" font-family="'Segoe UI', Arial, sans-serif" font-size="28" font-weight="500" fill="#E2E8F0" text-anchor="middle">
    food brands.
  </text>
  
  <!-- Cloud Kitchen Icon - Modern Design -->
  <g transform="translate(540, 760)" opacity="0.55">
    <!-- Phone/App outline -->
    <rect x="-35" y="-65" width="70" height="130" rx="10" fill="none" stroke="url(#brandGradient)" stroke-width="3"/>
    <rect x="-28" y="-55" width="56" height="95" fill="none" stroke="url(#brandGradient)" stroke-width="2" rx="3"/>
    <circle cx="0" cy="52" r="8" fill="none" stroke="url(#brandGradient)" stroke-width="2"/>
    
    <!-- Food delivery signals -->
    <path d="M 50 -30 Q 70 -30 70 -10 Q 70 10 50 10" fill="none" stroke="url(#brandGradient)" stroke-width="3" opacity="0.8"/>
    <path d="M 60 -20 Q 80 -20 80 0 Q 80 20 60 20" fill="none" stroke="url(#brandGradient)" stroke-width="2" opacity="0.6"/>
    <path d="M 70 -10 Q 90 -10 90 10 Q 90 30 70 30" fill="none" stroke="url(#brandGradient)" stroke-width="2" opacity="0.4"/>
    
    <!-- Food bag icon inside phone -->
    <rect x="-15" y="-35" width="30" height="35" rx="3" fill="none" stroke="url(#brandGradient)" stroke-width="2"/>
    <path d="M -8 -35 L -8 -45 Q -8 -50 0 -50 Q 8 -50 8 -45 L 8 -35" fill="none" stroke="url(#brandGradient)" stroke-width="2"/>
    
    <!-- Location pin -->
    <circle cx="-60" cy="-20" r="15" fill="none" stroke="url(#brandGradient)" stroke-width="3"/>
    <circle cx="-60" cy="-20" r="5" fill="url(#brandGradient)" opacity="0.5"/>
    <path d="M -60 -5 L -60 20" stroke="url(#brandGradient)" stroke-width="2" stroke-dasharray="4,4"/>
  </g>
  
  <!-- Bottom Tagline -->
  <text x="540" y="880" font-family="'Segoe UI', Arial, sans-serif" font-size="26" font-weight="700" fill="url(#brandGradient)" text-anchor="middle">
    Smart leasing. Zero noise.
  </text>
  
  <!-- Stats Row -->
  <g transform="translate(540, 940)">
    <rect x="-240" y="-22" width="145" height="44" rx="8" fill="#1E293B" stroke="url(#brandGradient)" stroke-width="1"/>
    <text x="-168" y="8" font-family="'Segoe UI', Arial, sans-serif" font-size="18" font-weight="800" fill="url(#brandGradient)" text-anchor="middle">100+ Brands</text>
    
    <rect x="-72" y="-22" width="145" height="44" rx="8" fill="#1E293B" stroke="url(#brandGradient)" stroke-width="1"/>
    <text x="0" y="8" font-family="'Segoe UI', Arial, sans-serif" font-size="18" font-weight="800" fill="url(#brandGradient)" text-anchor="middle">Top 5 Matches</text>
    
    <rect x="95" y="-22" width="145" height="44" rx="8" fill="#1E293B" stroke="url(#brandGradient)" stroke-width="1"/>
    <text x="168" y="8" font-family="'Segoe UI', Arial, sans-serif" font-size="18" font-weight="800" fill="url(#brandGradient)" text-anchor="middle">AI Powered</text>
  </g>
  
  <!-- CTA -->
  <g transform="translate(540, 1015)">
    <rect x="-130" y="-28" width="260" height="56" rx="28" fill="url(#diagonalGradient)" filter="url(#glow)"/>
    <text x="0" y="8" font-family="'Segoe UI', Arial, sans-serif" font-size="24" font-weight="800" fill="#FFFFFF" text-anchor="middle">
      List your space
    </text>
  </g>
  
  <!-- Bottom Accent -->
  <rect x="0" y="1074" width="1080" height="6" fill="url(#brandGradient)"/>
</svg>
