<svg width="400" height="120" viewBox="0 0 400 120" xmlns="http://www.w3.org/2000/svg">
  <defs>
    <linearGradient id="textGradient" x1="0%" y1="0%" x2="100%" y2="0%">
      <stop offset="0%" style="stop-color:#FF5200;stop-opacity:1" />
      <stop offset="100%" style="stop-color:#E4002B;stop-opacity:1" />
    </linearGradient>
    <linearGradient id="txtGO" x1="0%" y1="0%" x2="100%" y2="100%">
      <stop offset="0%" stop-color="#FF5A1F" />
      <stop offset="100%" stop-color="#E4002B" />
    </linearGradient>
    <linearGradient id="txtGM" x1="0%" y1="0%" x2="100%" y2="100%">
      <stop offset="0%" stop-color="#F15BB5" />
      <stop offset="100%" stop-color="#C11B6E" />
    </linearGradient>
  </defs>
  <g transform="translate(0, 10)">
    <circle cx="60" cy="50" r="32" fill="none" stroke="rgba(255,82,0,0.22)" stroke-width="1" />
    <circle cx="60" cy="50" r="40" fill="none" stroke="rgba(255,82,0,0.14)" stroke-width="0.85" />
    <g>
      <animateTransform attributeName="transform" type="translate" values="0 0; 0 -0.5; 0 0" dur="4.5s" repeatCount="indefinite" />
      <line x1="60" y1="22" x2="35.75" y2="64" stroke="rgba(200,100,70,0.4)" stroke-width="0.9" stroke-linecap="round" />
      <line x1="60" y1="22" x2="84.25" y2="64" stroke="rgba(200,100,70,0.4)" stroke-width="0.9" stroke-linecap="round" />
      <line x1="35.75" y1="64" x2="84.25" y2="64" stroke="rgba(200,100,70,0.4)" stroke-width="0.9" stroke-linecap="round" />
      <circle cx="60" cy="22" r="5.2" fill="url(#txtGO)" />
      <circle cx="57.2" cy="19.1" r="1.1" fill="white" fill-opacity="0.38" />
      <circle cx="35.75" cy="64" r="4" fill="url(#txtGO)" />
      <circle cx="32.8" cy="61" r="0.85" fill="white" fill-opacity="0.3" />
      <circle cx="84.25" cy="64" r="3.1" fill="url(#txtGM)" />
      <circle cx="82" cy="61" r="0.7" fill="white" fill-opacity="0.35" />
    </g>
  </g>
  <text x="150" y="50" font-family="Arial, sans-serif" font-size="48" font-weight="900" fill="url(#textGradient)">
    L
  </text>
  <g transform="translate(180, 10) scale(0.26)">
    <circle cx="50" cy="50" r="32" fill="none" stroke="rgba(255,82,0,0.22)" stroke-width="1" />
    <circle cx="50" cy="50" r="40" fill="none" stroke="rgba(255,82,0,0.14)" stroke-width="0.85" />
    <g>
      <animateTransform attributeName="transform" type="translate" values="0 0; 0 -0.5; 0 0" dur="4.5s" repeatCount="indefinite" />
      <line x1="50" y1="22" x2="25.75" y2="64" stroke="rgba(200,100,70,0.4)" stroke-width="0.9" stroke-linecap="round" />
      <line x1="50" y1="22" x2="74.25" y2="64" stroke="rgba(200,100,70,0.4)" stroke-width="0.9" stroke-linecap="round" />
      <line x1="25.75" y1="64" x2="74.25" y2="64" stroke="rgba(200,100,70,0.4)" stroke-width="0.9" stroke-linecap="round" />
      <circle cx="50" cy="22" r="5.2" fill="url(#txtGO)" />
      <circle cx="47.2" cy="19.1" r="1.1" fill="white" fill-opacity="0.38" />
      <circle cx="25.75" cy="64" r="4" fill="url(#txtGO)" />
      <circle cx="22.8" cy="61" r="0.85" fill="white" fill-opacity="0.3" />
      <circle cx="74.25" cy="64" r="3.1" fill="url(#txtGM)" />
      <circle cx="72" cy="61" r="0.7" fill="white" fill-opacity="0.35" />
    </g>
  </g>
  <text x="200" y="50" font-family="Arial, sans-serif" font-size="48" font-weight="900" fill="url(#textGradient)">
    ka
  </text>
  <text x="280" y="50" font-family="Arial, sans-serif" font-size="48" font-weight="900" fill="#1F2937">
    zen
  </text>
  <text x="150" y="85" font-family="Arial, sans-serif" font-size="14" font-weight="500" fill="#6B7280">
    Powered By Ai
  </text>
</svg>
