<?xml version="1.0" encoding="UTF-8"?>
<svg width="1080" height="1080" viewBox="0 0 1080 1080" xmlns="http://www.w3.org/2000/svg">
  <defs>
    <linearGradient id="brandGradient" x1="0%" y1="0%" x2="100%" y2="0%">
      <stop offset="0%" style="stop-color:#FF5200;stop-opacity:1" />
      <stop offset="100%" style="stop-color:#E4002B;stop-opacity:1" />
    </linearGradient>
    <linearGradient id="bgGradient" x1="0%" y1="0%" x2="0%" y2="100%">
      <stop offset="0%" style="stop-color:#0F172A;stop-opacity:1" />
      <stop offset="100%" style="stop-color:#1E293B;stop-opacity:1" />
    </linearGradient>
    <filter id="glow" x="-50%" y="-50%" width="200%" height="200%">
      <feGaussianBlur stdDeviation="12" result="coloredBlur"/>
      <feMerge>
        <feMergeNode in="coloredBlur"/>
        <feMergeNode in="SourceGraphic"/>
      </feMerge>
    </filter>
    <filter id="hugeGlow" x="-100%" y="-100%" width="300%" height="300%">
      <feGaussianBlur stdDeviation="50" result="coloredBlur"/>
      <feMerge>
        <feMergeNode in="coloredBlur"/>
        <feMergeNode in="SourceGraphic"/>
      </feMerge>
    </filter>
  </defs>
  
  <!-- Background -->
  <rect width="1080" height="1080" fill="url(#bgGradient)"/>
  
  <!-- Top bar -->
  <rect x="0" y="0" width="1080" height="8" fill="url(#brandGradient)"/>
  
  <!-- LOGO top left with Powered By Ai -->
  <g transform="translate(50, 50)">
    <!-- Quantum orb icon -->
    <g transform="translate(18, 0)">
      <circle cx="0" cy="0" r="16" fill="none" stroke="#FF5200" stroke-width="1" opacity="0.3"/>
      <circle cx="0" cy="-16" r="3" fill="#FF5200" filter="url(#glow)"/>
      <circle cx="16" cy="0" r="3" fill="#FF5200" filter="url(#glow)"/>
      <circle cx="0" cy="16" r="3" fill="#E4002B" filter="url(#glow)"/>
      <circle cx="-16" cy="0" r="3" fill="#E4002B" filter="url(#glow)"/>
      <circle cx="0" cy="0" r="5" fill="#FF5200" filter="url(#glow)"/>
    </g>
    <!-- Lokazen text -->
    <text x="50" y="8" font-family="Arial, sans-serif" font-size="28" font-weight="900" fill="#FF5200">Loka</text>
    <text x="120" y="8" font-family="Arial, sans-serif" font-size="28" font-weight="900" fill="#FFFFFF">zen</text>
    <!-- Powered By Ai - Highlighted -->
    <rect x="46" y="16" width="110" height="20" rx="10" fill="#FF5200" opacity="0.15"/>
    <text x="50" y="31" font-family="Arial, sans-serif" font-size="11" font-weight="600" fill="#FF5200">Powered By Ai</text>
  </g>
  
  <!-- MASSIVE NUMBER - takes center stage -->
  <g transform="translate(540, 280)">
    <text x="0" y="0" font-family="'Segoe UI', Arial, sans-serif" font-size="280" font-weight="900" fill="#FF5200" text-anchor="middle" filter="url(#hugeGlow)">20+</text>
  </g>
  
  <!-- Category -->
  <text x="540" y="400" font-family="'Segoe UI', Arial, sans-serif" font-size="56" font-weight="800" fill="#FFFFFF" text-anchor="middle">QSR BRANDS</text>
  <text x="540" y="455" font-family="'Segoe UI', Arial, sans-serif" font-size="22" font-weight="500" fill="#94A3B8" text-anchor="middle">actively looking for space like yours</text>
  
  <!-- Location Grid - Visual layout -->
  <g transform="translate(540, 580)">
    <!-- Row 1 -->
    <g transform="translate(-390, 0)">
      <rect x="0" y="0" width="150" height="55" rx="8" fill="#FF5200"/>
      <text x="75" y="35" font-family="'Segoe UI', Arial, sans-serif" font-size="17" font-weight="700" fill="#FFFFFF" text-anchor="middle">Koramangala</text>
    </g>
    <g transform="translate(-220, 0)">
      <rect x="0" y="0" width="130" height="55" rx="8" fill="#1E293B" stroke="#FF5200" stroke-width="2"/>
      <text x="65" y="35" font-family="'Segoe UI', Arial, sans-serif" font-size="17" font-weight="700" fill="#FF5200" text-anchor="middle">Indiranagar</text>
    </g>
    <g transform="translate(-70, 0)">
      <rect x="0" y="0" width="120" height="55" rx="8" fill="#FF5200"/>
      <text x="60" y="35" font-family="'Segoe UI', Arial, sans-serif" font-size="17" font-weight="700" fill="#FFFFFF" text-anchor="middle">HSR Layout</text>
    </g>
    <g transform="translate(70, 0)">
      <rect x="0" y="0" width="110" height="55" rx="8" fill="#1E293B" stroke="#FF5200" stroke-width="2"/>
      <text x="55" y="35" font-family="'Segoe UI', Arial, sans-serif" font-size="17" font-weight="700" fill="#FF5200" text-anchor="middle">Whitefield</text>
    </g>
    <g transform="translate(200, 0)">
      <rect x="0" y="0" width="130" height="55" rx="8" fill="#FF5200"/>
      <text x="65" y="35" font-family="'Segoe UI', Arial, sans-serif" font-size="17" font-weight="700" fill="#FFFFFF" text-anchor="middle">Marathahalli</text>
    </g>
    
    <!-- Row 2 -->
    <g transform="translate(-350, 70)">
      <rect x="0" y="0" width="120" height="55" rx="8" fill="#1E293B" stroke="#FF5200" stroke-width="2"/>
      <text x="60" y="35" font-family="'Segoe UI', Arial, sans-serif" font-size="17" font-weight="700" fill="#FF5200" text-anchor="middle">Jayanagar</text>
    </g>
    <g transform="translate(-210, 70)">
      <rect x="0" y="0" width="130" height="55" rx="8" fill="#FF5200"/>
      <text x="65" y="35" font-family="'Segoe UI', Arial, sans-serif" font-size="17" font-weight="700" fill="#FFFFFF" text-anchor="middle">BTM Layout</text>
    </g>
    <g transform="translate(-60, 70)">
      <rect x="0" y="0" width="110" height="55" rx="8" fill="#1E293B" stroke="#FF5200" stroke-width="2"/>
      <text x="55" y="35" font-family="'Segoe UI', Arial, sans-serif" font-size="17" font-weight="700" fill="#FF5200" text-anchor="middle">JP Nagar</text>
    </g>
    <g transform="translate(70, 70)">
      <rect x="0" y="0" width="130" height="55" rx="8" fill="#FF5200"/>
      <text x="65" y="35" font-family="'Segoe UI', Arial, sans-serif" font-size="17" font-weight="700" fill="#FFFFFF" text-anchor="middle">Banashankari</text>
    </g>
    <g transform="translate(220, 70)">
      <rect x="0" y="0" width="110" height="55" rx="8" fill="#1E293B" stroke="#FF5200" stroke-width="2"/>
      <text x="55" y="35" font-family="'Segoe UI', Arial, sans-serif" font-size="17" font-weight="700" fill="#FF5200" text-anchor="middle">MG Road</text>
    </g>
    
    <!-- Row 3 -->
    <g transform="translate(-280, 140)">
      <rect x="0" y="0" width="145" height="55" rx="8" fill="#FF5200"/>
      <text x="72" y="35" font-family="'Segoe UI', Arial, sans-serif" font-size="17" font-weight="700" fill="#FFFFFF" text-anchor="middle">Sarjapur Road</text>
    </g>
    <g transform="translate(-115, 140)">
      <rect x="0" y="0" width="100" height="55" rx="8" fill="#1E293B" stroke="#FF5200" stroke-width="2"/>
      <text x="50" y="35" font-family="'Segoe UI', Arial, sans-serif" font-size="17" font-weight="700" fill="#FF5200" text-anchor="middle">Hebbal</text>
    </g>
    <g transform="translate(5, 140)">
      <rect x="0" y="0" width="140" height="55" rx="8" fill="#FF5200"/>
      <text x="70" y="35" font-family="'Segoe UI', Arial, sans-serif" font-size="17" font-weight="700" fill="#FFFFFF" text-anchor="middle">Electronic City</text>
    </g>
    <g transform="translate(165, 140)">
      <rect x="0" y="0" width="115" height="55" rx="8" fill="#1E293B" stroke="#FF5200" stroke-width="2"/>
      <text x="57" y="35" font-family="'Segoe UI', Arial, sans-serif" font-size="17" font-weight="700" fill="#FF5200" text-anchor="middle">Bellandur</text>
    </g>
  </g>
  
  <!-- Specs bar -->
  <g transform="translate(540, 840)">
    <text x="-150" y="0" font-family="'Segoe UI', Arial, sans-serif" font-size="48" font-weight="800" fill="#FFFFFF" text-anchor="middle">150-1000</text>
    <text x="-150" y="35" font-family="'Segoe UI', Arial, sans-serif" font-size="16" font-weight="500" fill="#64748B" text-anchor="middle">SQFT</text>
    <rect x="-30" y="-20" width="4" height="60" rx="2" fill="#334155"/>
    <text x="150" y="0" font-family="'Segoe UI', Arial, sans-serif" font-size="48" font-weight="800" fill="#FFFFFF" text-anchor="middle">50K-3L</text>
    <text x="150" y="35" font-family="'Segoe UI', Arial, sans-serif" font-size="16" font-weight="500" fill="#64748B" text-anchor="middle">RENT RANGE</text>
  </g>
  
  <!-- AI Insight - Highlighted -->
  <g transform="translate(540, 920)">
    <rect x="-340" y="-18" width="680" height="36" rx="18" fill="#FF5200" opacity="0.1"/>
    <rect x="-340" y="-18" width="680" height="36" rx="18" fill="none" stroke="#FF5200" stroke-width="1" opacity="0.4"/>
    <text x="0" y="6" font-family="Arial, sans-serif" font-size="13" font-weight="600" fill="#FF5200" text-anchor="middle">AI scoring enriched with real-time location insights for perfect property-brand matching</text>
  </g>
  
  <!-- CTA -->
  <g transform="translate(540, 1000)">
    <rect x="-200" y="-35" width="400" height="70" rx="35" fill="url(#brandGradient)" filter="url(#glow)"/>
    <text x="0" y="12" font-family="Arial, sans-serif" font-size="24" font-weight="800" fill="#FFFFFF" text-anchor="middle">LIST YOUR PROPERTY FREE</text>
  </g>
  
  <!-- Bottom bar -->
  <rect x="0" y="1072" width="1080" height="8" fill="url(#brandGradient)"/>
</svg>
